<svg xmlns="http://www.w3.org/2000/svg" width="256" height="256"><path fill="#1976D2" fill-opacity=".016" fill-rule="evenodd" d="M0 128.004v128.004l128.25-.254 128.25-.254.254-127.75L257.008 0H0v128.004m.485.496c0 70.4.119 99.053.265 63.672.146-35.38.146-92.98 0-128C.604 29.153.485 58.1.485 128.5"/><path fill="#1976D2" fill-opacity=".099" fill-rule="evenodd" d="M56 49.532c-12.634 3.049-14.523 3.686-20.862 7.028C27.2 60.744 17.897 68.654 14.2 74.361c-1.475 2.277-2.97 4.364-3.323 4.639-.352.275-2.047 3.425-3.766 7-3.593 7.473-6.552 23.045-5.7 30 2.369 19.325 7.454 30.2 19.568 41.846 20.421 19.632 54.566 23.728 83.622 10.03 3.356-1.582 6.412-2.876 6.791-2.876.379 0 1.908-.831 3.398-1.846 1.491-1.016 5.888-3.913 9.773-6.438 3.885-2.526 14.01-9.848 22.5-16.272C165.201 126.721 174.302 122 182.619 122c11.102 0 18.973 7.085 18.801 16.925-.115 6.624-5.574 16.012-9.337 16.058-.779.009-1.126.307-.772.661.354.355 2.614-.107 5.021-1.027 4.862-1.857 10.407-7.941 12.403-13.61 3.134-8.9.499-19.871-6.187-25.755-6.361-5.6-12.861-7.591-23.036-7.057-4.601.241-8.961.909-9.689 1.484-.728.575-2.622 1.356-4.211 1.737-3.287.787-17.219 8.976-24.936 14.656a632.098 632.098 0 0 1-8.176 5.925c-1.65 1.164-6.004 4.34-9.675 7.059-3.671 2.719-6.925 4.944-7.231 4.944-.305 0-2.926 1.497-5.825 3.328-6.98 4.408-12.692 6.972-21.769 9.772-10.93 3.371-27.411 3.35-38.507-.049-13.56-4.154-23.162-12.152-28.873-24.051-3.066-6.387-3.12-6.761-3.12-21.5 0-14.324.129-15.292 2.858-21.477C25.006 79.49 30.024 72.956 39.19 65.5c10.183-8.283 23.794-12.044 40.595-11.218 8.306.409 10.079.259 9.217-.779-.586-.707-2.289-1.519-3.784-1.803-1.495-.285-5.418-1.218-8.718-2.074-7.172-1.859-13.075-1.886-20.5-.094m117 1.407c-1.375.43-4.75 1.313-7.5 1.962-5.436 1.283-27.5 11.934-27.5 13.274 0 .454-.618.825-1.373.825-.756 0-3.696 1.688-6.535 3.75-4.482 3.257-8.074 5.953-23.44 17.593a431.085 431.085 0 0 0-5.5 4.247c-5.382 4.243-16.029 9.455-21.308 10.431-14.163 2.618-24.892-4.618-24.822-16.739.025-4.226 2.788-11.059 5.32-13.154 2.634-2.181 1.924-3.318-1.092-1.749-3.289 1.711-6.112 4.761-9.233 9.974-3.17 5.294-3.284 15.396-.241 21.271 6.775 13.08 24.091 17.391 41.724 10.389 4.4-1.748 8.71-3.815 9.579-4.595.868-.78 1.951-1.418 2.405-1.418.455 0 2.438-1.237 4.406-2.75 1.968-1.513 4.324-3.2 5.236-3.75 3.165-1.909 11.399-7.864 15.874-11.479 12.142-9.808 28.028-18.373 39.978-21.555 11.889-3.164 17.676-3.689 27.38-2.484 21.631 2.688 35.247 12.389 41.724 29.726 2.575 6.893 2.911 9.082 2.914 18.974.004 9.955-.325 12.074-2.997 19.321-3.437 9.322-6.85 14.669-13.687 21.447-11.061 10.965-26.59 17.482-42.033 17.639l-8.779.09 5 1.457c6.841 1.994 24.951 1.179 32.54-1.465 12.682-4.418 21.811-10.39 28.748-18.806 6.298-7.64 9.822-13.869 12.796-22.611 3.193-9.389 3.413-25.372.475-34.569-7.053-22.078-24.093-38.179-47.213-44.612-6.027-1.677-28.143-2.104-32.846-.634M29.86 194.799C23.002 201.771 24.305 208 32.622 208c7.092 0 10.588-2.921 7.03-5.874-1.029-.854-1.777-.646-3.155.878-3.92 4.331-6.738 1.29-3.754-4.052 2.235-3.999 3.511-4.555 5.617-2.449 1.238 1.238 2.043 1.352 3.616.51 2.537-1.358 2.539-2.127.013-4.291-3.397-2.908-8.002-2.119-12.129 2.077m15.929.701c-.662 2.475-1.56 4.5-1.996 4.5-.436 0-.793 1.527-.793 3.393 0 3.961 1.123 4.607 8.014 4.607 4.162 0 5.12-.39 6.756-2.75 2.208-3.187 5.322-12.292 4.602-13.457-.269-.436-1.538-.793-2.82-.793-1.857 0-2.459.689-2.967 3.399-.73 3.889-3.225 9.26-4.735 10.194-2.319 1.433-2.994-1.402-1.43-6.008 2.178-6.415 2.035-7.585-.924-7.585-2.122 0-2.687.685-3.707 4.5m18.878-3.833C63.29 193.043 64.073 195 66 195c1.119 0 2 .667 2 1.514 0 1.468-.418 2.53-2.844 7.222-1.842 3.563-1.404 4.415 2.094 4.077 3.108-.299 3.312-.587 4.675-6.563 1.335-5.855 1.603-6.25 4.25-6.25 2.158 0 2.825-.472 2.825-2 0-1.805-.667-2-6.833-2-3.759 0-7.134.3-7.5.667m17.615-.015c-.67.271-1.523 2.148-1.895 4.171-.371 2.022-.996 3.902-1.387 4.177-.391.275-1.022 2.188-1.401 4.25-.669 3.638-.602 3.75 2.244 3.75 2.6 0 3.014-.428 3.635-3.75.386-2.062 1.07-4.2 1.522-4.75.452-.55 1.136-2.687 1.522-4.75.608-3.256.455-3.74-1.161-3.671-1.023.043-2.409.301-3.079.573m7.572 2.098c-2.376 5.924-2.725 6.863-3.772 10.149C84.697 208.25 84.623 208 87.3 208c2.733 0 4.7-1.731 4.7-4.137 0-1.228.951-1.828 3.25-2.05 2.491-.24 3.325-.838 3.57-2.563.261-1.844-.156-2.25-2.309-2.25-1.498 0-2.363-.43-2.011-1 .34-.55 2.118-1 3.952-1 1.938 0 3.559-.587 3.872-1.402.826-2.152-.206-2.598-6.012-2.598-4.908 0-5.447.23-6.458 2.75m14.583-1.447c-.275.716.149 2.854.941 4.75 1.45 3.47 1.147 8.947-.495 8.947-.485 0-.883.45-.883 1s1.361 1 3.025 1c2.554 0 3.117-.462 3.618-2.967.363-1.812 2.688-4.948 5.975-8.057 2.96-2.799 5.382-5.289 5.382-5.533 0-.243-1.303-.443-2.895-.443-1.754 0-3.813.954-5.225 2.42-2.562 2.663-3.88 2.5-3.88-.479 0-1.41-.692-1.941-2.531-1.941-1.393 0-2.757.586-3.032 1.303"/><path fill="#1976D2" fill-opacity=".306" fill-rule="evenodd" d="M49 51.895C18.033 60.086-1.505 89.523 2.778 121.534c2.545 19.024 15.491 36.77 33.722 46.226 9.695 5.029 19.501 7.241 32.064 7.233 23.643-.015 42.239-7.892 71.84-30.429 18.384-13.997 18.687-14.212 25.596-18.155 5.574-3.181 7.605-3.774 14.259-4.165 9.79-.576 11.861-.034 16.757 4.389 6.642 6.001 7.474 14.628 2.182 22.637-3.614 5.47-2.166 5.512 3.177.091 5.434-5.511 7-10.129 6.437-18.979-.691-10.848-7.166-17.701-19.87-21.028-6.22-1.63-6.94-1.627-14 .044-11.298 2.674-25.46 10.386-40.333 21.965-8.649 6.733-24.231 17.012-30.807 20.324-2.584 1.301-8.884 3.764-14 5.472-8.216 2.744-10.702 3.119-21.302 3.211-11.228.097-12.589-.11-21.163-3.224-16.323-5.929-27.752-18.226-30.245-32.542-1.407-8.076-1.395-20.07.026-26.805 3.332-15.792 16.908-32.3 32.382-39.376 6.546-2.993 19.461-5.578 26.998-5.404 8.88.205 9.527-.052 4.002-1.589-6.899-1.92-23.404-1.676-31.5.465m123.5.064c-5.256 1.13-16.558 5.417-23.74 9.005-9.841 4.915-16.892 9.669-35.76 24.112-10.203 7.811-17.603 12.691-25 16.491-4.653 2.389-6.743 2.833-13.571 2.879-7.181.048-8.53-.25-12.23-2.697-7.362-4.87-10.442-15.511-6.625-22.892 1.837-3.552 1.093-5.087-1.107-2.284-7.884 10.047-7.377 23.492 1.191 31.623 3.718 3.528 10.54 6.435 17.144 7.306 10.301 1.36 26.045-5.595 45.566-20.128 24.224-18.035 33.81-23.751 47.77-28.483 8.646-2.932 10.356-3.173 22.362-3.149 11.777.023 13.811.305 21.619 2.996 15.704 5.412 26.035 16.034 30.339 31.194 1.817 6.398 2.036 21.635.421 29.269-2.655 12.549-11.296 25.614-22.328 33.759-6.199 4.577-17.323 9.82-22.641 10.67-4.285.686-6.354 2.37-2.911 2.37 10.179 0 27.6-5.691 35.843-11.709 7.224-5.274 14.471-14.036 19.016-22.991 4.843-9.542 5.624-13.259 5.633-26.816.008-12.133-.189-13.489-2.912-20-7.367-17.616-19.398-29.903-35.756-36.518A749.24 749.24 0 0 1 207 52.757c-3.169-1.339-29.184-1.941-34.5-.798M30.548 194.653c-3.378 3.479-4.095 5.388-3.682 9.803.243 2.593 1.873 3.51 6.273 3.529 4.396.018 8.303-2.775 6.916-4.945-.805-1.26-1.192-1.226-2.823.25-2.056 1.861-5.762 2.279-6.703.757-.324-.524.213-2.662 1.193-4.75 1.336-2.846 2.47-3.876 4.53-4.113 2.015-.232 2.748.123 2.748 1.333 0 1.977 1.943 1.52 3.406-.8.811-1.285.6-2.003-.928-3.158-3.426-2.59-7.056-1.895-10.93 2.094m17.86-2.888c-1.783 1.201-4.595 9.717-4.238 12.84.304 2.669.686 2.918 4.886 3.192 6.09.397 9.398-2.219 11.422-9.033 2.053-6.913 1.96-7.967-.669-7.584-1.563.229-2.437 1.322-3.052 3.82-1.528 6.209-3.728 10-5.804 10-2.426 0-2.611-3.489-.46-8.638 1.874-4.485.909-6.611-2.085-4.597m17.301-.141c-1.297 1.298-.732 3.376.919 3.376 1.355 0 1.514.713.949 4.25-.374 2.338-1.106 4.678-1.628 5.2-1.772 1.774-1.035 3.701 1.289 3.37 1.778-.254 2.648-1.606 4.229-6.57 1.827-5.735 2.225-6.25 4.835-6.25 2.17 0 2.766-.415 2.511-1.75-.266-1.395-1.555-1.809-6.364-2.042-3.317-.161-6.35.026-6.74.416m16.846.963c-.826.827-1.974 3.395-2.552 5.708-.577 2.313-1.489 4.986-2.026 5.941C76.419 207.005 76.822 208 79.5 208c1.833 0 2.5-.533 2.5-2 0-1.1.348-2 .773-2 .425 0 1.254-1.912 1.843-4.25s1.392-4.979 1.785-5.871c.984-2.233-1.927-3.21-3.846-1.292m8.251.116c-.873.988-1.901 3.707-2.284 6.042-.383 2.334-1.107 4.498-1.609 4.809-1.753 1.083-.989 4.446 1.009 4.446 1.311 0 2.291-1.114 3.078-3.5 1.021-3.093 1.553-3.5 4.578-3.5 3.871 0 4.91-2.642 1.25-3.18-3.835-.565-3.233-2.669.86-3.006 2.582-.213 3.812-.798 3.812-1.814 0-2.37-8.649-2.61-10.694-.297m13.667-.659c-.355.574-.112 1.686.539 2.47 1.43 1.724 1.789 8.1.636 11.318-.737 2.057-.559 2.293 1.509 2 1.619-.23 2.664-1.327 3.384-3.553.573-1.772 3.16-5.252 5.75-7.734 2.59-2.481 4.709-4.744 4.709-5.028 0-1.654-4.3-.064-6.924 2.561-2.09 2.09-3.208 2.652-3.481 1.75-.222-.73-.657-2.115-.968-3.078-.615-1.906-4.116-2.386-5.154-.706"/><path fill="#1976D2" fill-opacity=".611" fill-rule="evenodd" d="M52 51.696c-4.706.797-17.177 6.435-22.34 10.098-11.807 8.378-18.665 17.654-23.53 31.825C3.468 101.374 3 104.183 3 112.404c0 10.45 2.797 21.295 7.89 30.596 3.721 6.796 16.61 19.07 24.328 23.168 11.583 6.151 17.261 7.339 34.782 7.279 18.745-.064 23.916-1.47 44-11.96 7.037-3.675 32.023-21.322 35.496-25.07.552-.596 4.956-3.698 9.786-6.893 11.306-7.48 19.731-10.047 27.718-8.447 6.059 1.214 10.461 3.748 13.467 7.754 2.622 3.493 3.345 13.836 1.259 18.017-2.636 5.283.747 2.53 3.878-3.156 4.189-7.608 3.996-15.523-.549-22.606-5.823-9.075-15.975-12.893-28.929-10.881-11.044 1.715-21.646 7.647-47.295 26.459-10.881 7.981-23.66 15.805-28.503 17.452-2.105.715-4.278 1.598-4.828 1.96-.55.363-3.475 1.496-6.5 2.518-4.376 1.479-8.565 1.864-20.5 1.883-14.651.022-15.201-.055-23.626-3.322-13.912-5.395-23.737-15.699-28.058-29.427-3.007-9.554-2.771-24.032.555-33.94 7.928-23.617 27.78-39.207 53.129-41.722 7.983-.792 7.974-.793-4-.794-6.6 0-13.125.191-14.5.424M30.974 194.872c-5.491 5.491-4.921 13.128.98 13.128 3.444 0 9.763-3.439 8.15-4.436-.585-.361-1.942-.186-3.018.39-1.075.575-3.109 1.046-4.52 1.046-3.112 0-3.368-2.878-.667-7.5 2.08-3.562 5.696-4.431 7.611-1.83 1.248 1.696 1.396 1.705 2.007.128 1.012-2.609-.288-3.798-4.153-3.798-2.541 0-4.316.798-6.39 2.872m16.001-.307c-.536 1.411-.975 3.184-.975 3.941 0 .757-.45 1.654-1 1.994-1.382.854-1.256 4.844.2 6.3 3.184 3.184 11.821-.094 13.376-5.076.381-1.223 1.012-2.449 1.402-2.724.389-.275.992-1.963 1.34-3.75.541-2.783.348-3.25-1.343-3.25-1.086 0-1.975.624-1.975 1.386 0 .762-.672 2.674-1.494 4.25-.821 1.575-1.496 3.603-1.5 4.507C55 203.898 53.037 205 49.918 205c-2.045 0-2.734-3.734-1.023-5.55.492-.522 1.202-2.413 1.579-4.2.548-2.601.364-3.25-.919-3.25-.883 0-2.043 1.154-2.58 2.565M65.5 193c-.34.55.057 1 .882 1 2.142 0 2.766 1.473 1.765 4.166-1.58 4.253-2.283 9.834-1.239 9.834.549 0 1.732-1.687 2.629-3.75.897-2.062 2.043-4.531 2.547-5.486.504-.955.916-2.418.916-3.25 0-1.016.988-1.514 3-1.514 1.65 0 3-.45 3-1 0-.563-2.814-1-6.441-1-3.543 0-6.719.45-7.059 1m16.106 2.25c-1.93 4.213-3.886 11.804-3.215 12.474 1.251 1.251 3.477-.855 4.13-3.906.391-1.825 1.056-3.768 1.479-4.318.423-.55 1.082-2.463 1.464-4.25.546-2.555.367-3.25-.838-3.25-.843 0-2.202 1.463-3.02 3.25m8.114 1c-3.314 9.74-3.541 10.743-2.565 11.346 1.213.75 3.77-2.487 3.813-4.827.02-1.063 1.093-1.963 2.782-2.333 5.043-1.106 5.896-1.822 2.608-2.192-2.547-.288-3.046-.723-2.633-2.299.377-1.443 1.381-1.945 3.892-1.945 1.86 0 3.383-.45 3.383-1s-2.213-1-4.917-1c-4.892 0-4.925.022-6.363 4.25m15.816-1c.382 1.787 1.096 3.75 1.587 4.361.54.674.293 2.543-.629 4.75-1.392 3.331-1.381 3.639.132 3.639 1.975 0 4.298-2.809 4.342-5.25.033-1.783 6.66-9.055 9.157-10.046.756-.3.168-.582-1.307-.625-1.899-.056-3.314.809-4.848 2.962-1.728 2.429-2.448 2.807-3.568 1.878-.771-.64-1.402-2.009-1.402-3.041 0-1.235-.712-1.878-2.079-1.878-1.822 0-1.994.402-1.385 3.25"/></svg>