<svg width="94" height="94" viewBox="0 0 94 94" fill="none" xmlns="http://www.w3.org/2000/svg">
<path d="M74.4167 53.2118V39.1666C74.4167 26.5667 65.8587 15.9525 54.2654 12.7604C53.1178 9.86992 50.3135 7.83325 47 7.83325C43.6865 7.83325 40.8822 9.86992 39.7346 12.7604C28.1413 15.9564 19.5833 26.5667 19.5833 39.1666V53.2118L12.8976 59.8975C12.5332 60.2606 12.2442 60.6922 12.0472 61.1674C11.8503 61.6427 11.7493 62.1522 11.75 62.6666V70.4999C11.75 71.5387 12.1627 72.5349 12.8972 73.2694C13.6317 74.0039 14.6279 74.4166 15.6667 74.4166H78.3333C79.3721 74.4166 80.3683 74.0039 81.1028 73.2694C81.8374 72.5349 82.25 71.5387 82.25 70.4999V62.6666C82.2507 62.1522 82.1497 61.6427 81.9528 61.1674C81.7558 60.6922 81.4668 60.2606 81.1024 59.8975L74.4167 53.2118ZM74.4167 66.5832H19.5833V64.2881L26.2691 57.6023C26.6335 57.2392 26.9225 56.8076 27.1195 56.3324C27.3164 55.8572 27.4174 55.3477 27.4167 54.8333V39.1666C27.4167 28.3683 36.2018 19.5833 47 19.5833C57.7982 19.5833 66.5833 28.3683 66.5833 39.1666V54.8333C66.5833 55.8751 66.9946 56.8699 67.7309 57.6023L74.4167 64.2881V66.5832ZM47 86.1666C49.4256 86.1696 51.7919 85.4169 53.7699 84.013C55.748 82.6092 57.2395 80.6239 58.0372 78.3333H35.9628C36.7605 80.6239 38.252 82.6092 40.2301 84.013C42.2081 85.4169 44.5744 86.1696 47 86.1666Z" fill="#4991B8"/>
</svg>
