<svg xmlns="http://www.w3.org/2000/svg">
  <symbol id="facebook" viewBox="0 0 20 20" fill="none">
    <g clip-path="url(#clip0_174_1892)">
    <path fill-rule="evenodd" clip-rule="evenodd" d="M0 10.0558C0 15.0275 3.61083 19.1617 8.33333 20V12.7775H5.83333V10H8.33333V7.7775C8.33333 5.2775 9.94417 3.88917 12.2225 3.88917C12.9442 3.88917 13.7225 4 14.4442 4.11083V6.66667H13.1667C11.9442 6.66667 11.6667 7.2775 11.6667 8.05583V10H14.3333L13.8892 12.7775H11.6667V20C16.3892 19.1617 20 15.0283 20 10.0558C20 4.525 15.5 0 10 0C4.5 0 0 4.525 0 10.0558Z" fill="white"/>
    </g>
    <defs>
    <clipPath id="clip0_174_1892">
    <rect width="20" height="20" fill="white"/>
    </clipPath>
    </defs>
  </symbol>

  <symbol id="instagram" viewBox="0 0 20 20" fill="none">
    <g clip-path="url(#clip0_174_1894)">
    <path d="M11.5768 9.846C11.5768 10.8018 10.8018 11.5768 9.846 11.5768C8.89017 11.5768 8.11523 10.8018 8.11523 9.846C8.11523 8.89017 8.89017 8.11523 9.846 8.11523C10.8018 8.11523 11.5768 8.89017 11.5768 9.846Z" fill="white"/>
    <path d="M12.7691 4.61523H6.92293C5.65039 4.61523 4.61523 5.65039 4.61523 6.92293V12.7691C4.61523 14.0416 5.65039 15.0768 6.92293 15.0768H12.7691C14.0416 15.0768 15.0768 14.0416 15.0768 12.7691V6.92293C15.0768 5.65039 14.0416 4.61523 12.7691 4.61523ZM9.846 12.7306C8.25541 12.7306 6.96139 11.4366 6.96139 9.846C6.96139 8.25541 8.25541 6.96139 9.846 6.96139C11.4366 6.96139 12.7306 8.25541 12.7306 9.846C12.7306 11.4366 11.4366 12.7306 9.846 12.7306ZM13.1537 7.11523C12.835 7.11523 12.5768 6.85697 12.5768 6.53831C12.5768 6.21965 12.835 5.96139 13.1537 5.96139C13.4724 5.96139 13.7306 6.21965 13.7306 6.53831C13.7306 6.85697 13.4724 7.11523 13.1537 7.11523Z" fill="white"/>
    <path d="M14.5 0H5.19231C2.32933 0 0 2.32933 0 5.19231V14.5C0 17.363 2.32933 19.6923 5.19231 19.6923H14.5C17.363 19.6923 19.6923 17.363 19.6923 14.5V5.19231C19.6923 2.32933 17.363 0 14.5 0ZM16.2308 12.7692C16.2308 14.6779 14.6779 16.2308 12.7692 16.2308H6.92308C5.01442 16.2308 3.46154 14.6779 3.46154 12.7692V6.92308C3.46154 5.01442 5.01442 3.46154 6.92308 3.46154H12.7692C14.6779 3.46154 16.2308 5.01442 16.2308 6.92308V12.7692Z" fill="white"/>
    </g>
    <defs>
    <clipPath id="clip0_174_1894">
    <rect width="19.6923" height="19.6923" fill="white"/>
    </clipPath>
    </defs>
  </symbol>

  <symbol id="twitter" viewBox="0 0 21 20" fill="none">
    <g clip-path="url(#clip0_174_1901)">
    <path d="M20.3847 3.73986C19.6524 4.06109 18.8721 4.27401 18.0585 4.37739C18.8955 3.8777 19.5342 3.09247 19.8345 2.14601C19.0542 2.61124 18.1927 2.93986 17.2745 3.12324C16.5336 2.33432 15.4776 1.8457 14.3256 1.8457C12.0905 1.8457 10.2912 3.65986 10.2912 5.88386C10.2912 6.20386 10.3182 6.51155 10.3847 6.80447C7.02838 6.64078 4.05854 5.03216 2.06346 2.5817C1.71515 3.18601 1.51084 3.8777 1.51084 4.62232C1.51084 6.02047 2.23084 7.25986 3.30408 7.97739C2.65546 7.96509 2.01915 7.77678 1.48008 7.48016C1.48008 7.49247 1.48008 7.50847 1.48008 7.52447C1.48008 9.48632 2.87946 11.1159 4.71454 11.4912C4.38592 11.5811 4.02777 11.6242 3.65608 11.6242C3.39761 11.6242 3.13669 11.6094 2.89177 11.5552C3.41484 13.154 4.89915 14.3294 6.66407 14.3675C5.29054 15.442 3.54654 16.0894 1.65854 16.0894C1.32746 16.0894 1.00992 16.0746 0.692383 16.034C2.48069 17.1872 4.60008 17.8457 6.88561 17.8457C14.3145 17.8457 18.3761 11.6919 18.3761 6.3577C18.3761 6.17924 18.3699 6.00693 18.3613 5.83586C19.1625 5.26724 19.8358 4.55709 20.3847 3.73986Z" fill="white"/>
    </g>
    <defs>
    <clipPath id="clip0_174_1901">
    <rect width="19.6923" height="19.6923" fill="white" transform="translate(0.692383)"/>
    </clipPath>
    </defs>
  </symbol>

  <symbol id="linkedin" viewBox="0 0 21 20" fill="none">
    <path fill-rule="evenodd" clip-rule="evenodd" d="M1.21826 2.36468C1.21826 1.95845 1.37963 1.56887 1.66688 1.28162C1.95412 0.994381 2.34371 0.83301 2.74993 0.83301H18.0183C18.2196 0.832681 18.419 0.872062 18.605 0.948899C18.7911 1.02574 18.9602 1.13852 19.1026 1.28079C19.2451 1.42306 19.358 1.59203 19.4351 1.77802C19.5121 1.96401 19.5517 2.16336 19.5516 2.36468V17.633C19.5518 17.8344 19.5123 18.0338 19.4354 18.2199C19.3585 18.4059 19.2456 18.575 19.1033 18.7174C18.9609 18.8598 18.7919 18.9728 18.6059 19.0498C18.4198 19.1269 18.2204 19.1665 18.0191 19.1663H2.74993C2.54872 19.1663 2.34948 19.1267 2.16359 19.0497C1.97771 18.9726 1.80882 18.8598 1.66658 18.7174C1.52434 18.5751 1.41154 18.4062 1.33461 18.2202C1.25769 18.0343 1.21815 17.8351 1.21826 17.6338V2.36468ZM8.47493 7.82301H10.9574V9.06968C11.3158 8.35301 12.2324 7.70801 13.6099 7.70801C16.2508 7.70801 16.8766 9.13551 16.8766 11.7547V16.6063H14.2041V12.3513C14.2041 10.8597 13.8458 10.018 12.9358 10.018C11.6733 10.018 11.1483 10.9255 11.1483 12.3513V16.6063H8.47493V7.82301ZM3.8916 16.4922H6.56493V7.70801H3.8916V16.4913V16.4922ZM6.94743 4.84301C6.95247 5.0719 6.91174 5.2995 6.82763 5.51244C6.74352 5.72538 6.61772 5.91937 6.45762 6.08304C6.29752 6.2467 6.10634 6.37674 5.89531 6.46552C5.68427 6.55429 5.45763 6.60002 5.22868 6.60002C4.99973 6.60002 4.77309 6.55429 4.56205 6.46552C4.35101 6.37674 4.15984 6.2467 3.99974 6.08304C3.83964 5.91937 3.71384 5.72538 3.62973 5.51244C3.54562 5.2995 3.50489 5.0719 3.50993 4.84301C3.51982 4.39372 3.70525 3.96617 4.0265 3.65191C4.34775 3.33766 4.77928 3.16169 5.22868 3.16169C5.67808 3.16169 6.10961 3.33766 6.43086 3.65191C6.75211 3.96617 6.93754 4.39372 6.94743 4.84301Z" fill="white"/>
  </symbol>

  <symbol id="mail_plus" viewBox="0 0 32 32" fill="none">
    <path d="M26.6668 5.33334H8.00016C6.5295 5.33334 5.3335 6.52934 5.3335 8V14.6667H8.00016V10.6667L16.5335 17.0667C16.7644 17.2396 17.0451 17.333 17.3335 17.333C17.6219 17.333 17.9026 17.2396 18.1335 17.0667L26.6668 10.6667V22.6667H16.0002V25.3333H26.6668C28.1375 25.3333 29.3335 24.1373 29.3335 22.6667V8C29.3335 6.52934 28.1375 5.33334 26.6668 5.33334ZM17.3335 14.3333L8.88816 8H25.7788L17.3335 14.3333Z" fill="#46474B"/>
    <path d="M2.6665 16H11.9998V18.6667H2.6665V16ZM5.33317 20H13.3332V22.6667H5.33317V20ZM9.33317 24H14.6665V26.6667H9.33317V24Z" fill="#46474B"/>
  </symbol>

  <symbol id="phone" viewBox="0 0 32 32" fill="none">
    <path d="M23.6095 16.3907C23.4857 16.2667 23.3388 16.1684 23.177 16.1013C23.0153 16.0343 22.8419 15.9997 22.6668 15.9997C22.4917 15.9997 22.3183 16.0343 22.1565 16.1013C21.9948 16.1684 21.8478 16.2667 21.7241 16.3907L19.5988 18.516C18.6135 18.2227 16.7748 17.556 15.6095 16.3907C14.4441 15.2253 13.7775 13.3867 13.4841 12.4013L15.6095 10.276C15.7334 10.1523 15.8317 10.0053 15.8988 9.84359C15.9659 9.68184 16.0004 9.50844 16.0004 9.33333C16.0004 9.15822 15.9659 8.98483 15.8988 8.82307C15.8317 8.66132 15.7334 8.51438 15.6095 8.39067L10.2761 3.05733C10.1524 2.9334 10.0055 2.83509 9.84371 2.76801C9.68196 2.70093 9.50856 2.6664 9.33345 2.6664C9.15834 2.6664 8.98495 2.70093 8.8232 2.76801C8.66144 2.83509 8.5145 2.9334 8.39079 3.05733L4.77479 6.67333C4.26812 7.18 3.98279 7.876 3.99345 8.58667C4.02412 10.4853 4.52679 17.08 9.72412 22.2773C14.9215 27.4747 21.5161 27.976 23.4161 28.008H23.4535C24.1575 28.008 24.8228 27.7307 25.3268 27.2267L28.9428 23.6107C29.0667 23.4869 29.165 23.34 29.2321 23.1783C29.2992 23.0165 29.3337 22.8431 29.3337 22.668C29.3337 22.4929 29.2992 22.3195 29.2321 22.1577C29.165 21.996 29.0667 21.849 28.9428 21.7253L23.6095 16.3907ZM23.4401 25.34C21.7761 25.312 16.0828 24.8653 11.6095 20.3907C7.12145 15.9027 6.68679 10.1893 6.66012 8.55867L9.33345 5.88533L12.7815 9.33333L11.0575 11.0573C10.9007 11.2139 10.7855 11.4071 10.7222 11.6194C10.6589 11.8317 10.6495 12.0565 10.6948 12.2733C10.7268 12.4267 11.5095 16.0627 13.7228 18.276C15.9361 20.4893 19.5721 21.272 19.7255 21.304C19.9422 21.3506 20.1672 21.3419 20.3797 21.2788C20.5921 21.2157 20.7853 21.1001 20.9415 20.9427L22.6668 19.2187L26.1148 22.6667L23.4401 25.34Z" fill="#46474B"/>
  </symbol>

  <symbol id="location" viewBox="0 0 32 32" fill="none">
    <path d="M16 15C18.2091 15 20 13.2091 20 11C20 8.79086 18.2091 7 16 7C13.7909 7 12 8.79086 12 11C12 13.2091 13.7909 15 16 15Z" stroke="#46474B" stroke-width="1.5" stroke-linecap="round" stroke-linejoin="round"/>
    <path d="M23.9998 15C20.9998 22 15.9998 30 15.9998 30C15.9998 30 10.9998 22 7.99976 15C4.99976 8 9.99976 2 15.9998 2C21.9998 2 26.9998 8 23.9998 15Z" stroke="#46474B" stroke-width="1.5" stroke-linecap="round" stroke-linejoin="round"/>
  </symbol>

  <svg id="facebook2" viewBox="0 0 20 20" fill="none">
    <path fill-rule="evenodd" clip-rule="evenodd" d="M0 10.0558C0 15.0275 3.61083 19.1617 8.33333 20V12.7775H5.83333V10H8.33333V7.7775C8.33333 5.2775 9.94417 3.88917 12.2225 3.88917C12.9442 3.88917 13.7225 4 14.4442 4.11083V6.66667H13.1667C11.9442 6.66667 11.6667 7.2775 11.6667 8.05583V10H14.3333L13.8892 12.7775H11.6667V20C16.3892 19.1617 20 15.0283 20 10.0558C20 4.525 15.5 0 10 0C4.5 0 0 4.525 0 10.0558Z" fill="#212227"/>
  </svg>

  <symbol id="calendar" viewBox="0 0 24 24" fill="none">
    <path d="M7.5 11.5H8.5V12.5H7.5V11.5ZM7.5 15.5H8.5V16.5H7.5V15.5ZM11.5 11.5H12.5V12.5H11.5V11.5ZM11.5 15.5H12.5V16.5H11.5V15.5ZM15.5 11.5H16.5V12.5H15.5V11.5ZM15.5 15.5H16.5V16.5H15.5V15.5Z" fill="white" stroke="#6B6C6F"/>
    <path d="M16.5 4V4.5H17H19C19.8269 4.5 20.5 5.17314 20.5 6V20C20.5 20.8269 19.8269 21.5 19 21.5H5C4.17314 21.5 3.5 20.8269 3.5 20V6C3.5 5.17314 4.17314 4.5 5 4.5H7H7.5V4V2.5H8.5V4V4.5H9H15H15.5V4V2.5H16.5V4ZM19.5 7.99996L19.5 7.5H19H5H4.5V8V20V20.5H5H19.001H19.501L19.501 20L19.5 7.99996Z" fill="#6B6C6F" stroke="#6B6C6F"/>
  </symbol>


</svg>
