<svg width="20" height="20" viewBox="0 0 20 20" fill="none" xmlns="http://www.w3.org/2000/svg">
<g clip-path="url(#clip0_836_189)">
<path d="M11.7306 9.99981C11.7306 10.9556 10.9556 11.7306 9.99981 11.7306C9.04398 11.7306 8.26904 10.9556 8.26904 9.99981C8.26904 9.04398 9.04398 8.26904 9.99981 8.26904C10.9556 8.26904 11.7306 9.04398 11.7306 9.99981Z" fill="#212227"/>
<path d="M12.9229 4.76904H7.07674C5.8042 4.76904 4.76904 5.8042 4.76904 7.07674V12.9229C4.76904 14.1954 5.8042 15.2306 7.07674 15.2306H12.9229C14.1954 15.2306 15.2306 14.1954 15.2306 12.9229V7.07674C15.2306 5.8042 14.1954 4.76904 12.9229 4.76904ZM9.99981 12.8844C8.40922 12.8844 7.1152 11.5904 7.1152 9.99981C7.1152 8.40922 8.40922 7.1152 9.99981 7.1152C11.5904 7.1152 12.8844 8.40922 12.8844 9.99981C12.8844 11.5904 11.5904 12.8844 9.99981 12.8844ZM13.3075 7.26904C12.9888 7.26904 12.7306 7.01078 12.7306 6.69212C12.7306 6.37346 12.9888 6.1152 13.3075 6.1152C13.6262 6.1152 13.8844 6.37346 13.8844 6.69212C13.8844 7.01078 13.6262 7.26904 13.3075 7.26904Z" fill="#212227"/>
<path d="M14.6538 0.153809H5.34612C2.48314 0.153809 0.153809 2.48314 0.153809 5.34612V14.6538C0.153809 17.5168 2.48314 19.8461 5.34612 19.8461H14.6538C17.5168 19.8461 19.8461 17.5168 19.8461 14.6538V5.34612C19.8461 2.48314 17.5168 0.153809 14.6538 0.153809ZM16.3846 12.923C16.3846 14.8317 14.8317 16.3846 12.923 16.3846H7.07689C5.16823 16.3846 3.61535 14.8317 3.61535 12.923V7.07689C3.61535 5.16823 5.16823 3.61535 7.07689 3.61535H12.923C14.8317 3.61535 16.3846 5.16823 16.3846 7.07689V12.923Z" fill="#212227"/>
</g>
<defs>
<clipPath id="clip0_836_189">
<rect width="19.6923" height="19.6923" fill="white" transform="translate(0.153809 0.153809)"/>
</clipPath>
</defs>
</svg>
