<svg width="20" height="20" viewBox="0 0 20 20" fill="none" xmlns="http://www.w3.org/2000/svg">
<g clip-path="url(#clip0_836_203)">
<path fill-rule="evenodd" clip-rule="evenodd" d="M0.833496 2.36468C0.833496 1.95845 0.994868 1.56887 1.28211 1.28162C1.56935 0.994381 1.95894 0.83301 2.36516 0.83301H17.6335C17.8348 0.832681 18.0342 0.872062 18.2203 0.948899C18.4064 1.02574 18.5754 1.13852 18.7179 1.28079C18.8603 1.42306 18.9733 1.59203 19.0503 1.77802C19.1273 1.96401 19.1669 2.16336 19.1668 2.36468V17.633C19.167 17.8344 19.1276 18.0338 19.0506 18.2199C18.9737 18.4059 18.8608 18.575 18.7185 18.7174C18.5762 18.8598 18.4071 18.9728 18.2211 19.0498C18.0351 19.1269 17.8357 19.1665 17.6343 19.1663H2.36516C2.16395 19.1663 1.96471 19.1267 1.77883 19.0497C1.59294 18.9726 1.42406 18.8598 1.28182 18.7174C1.13958 18.5751 1.02677 18.4062 0.949848 18.2202C0.872924 18.0343 0.833387 17.8351 0.833496 17.6338V2.36468ZM8.09016 7.82301H10.5727V9.06968C10.931 8.35301 11.8477 7.70801 13.2252 7.70801C15.866 7.70801 16.4918 9.13551 16.4918 11.7547V16.6063H13.8193V12.3513C13.8193 10.8597 13.461 10.018 12.551 10.018C11.2885 10.018 10.7635 10.9255 10.7635 12.3513V16.6063H8.09016V7.82301ZM3.50683 16.4922H6.18016V7.70801H3.50683V16.4913V16.4922ZM6.56266 4.84301C6.5677 5.0719 6.52697 5.2995 6.44286 5.51244C6.35875 5.72538 6.23296 5.91937 6.07286 6.08304C5.91276 6.2467 5.72158 6.37674 5.51054 6.46552C5.29951 6.55429 5.07286 6.60002 4.84391 6.60002C4.61496 6.60002 4.38832 6.55429 4.17728 6.46552C3.96625 6.37674 3.77507 6.2467 3.61497 6.08304C3.45487 5.91937 3.32907 5.72538 3.24496 5.51244C3.16085 5.2995 3.12012 5.0719 3.12516 4.84301C3.13506 4.39372 3.32048 3.96617 3.64173 3.65191C3.96298 3.33766 4.39452 3.16169 4.84391 3.16169C5.29331 3.16169 5.72484 3.33766 6.04609 3.65191C6.36734 3.96617 6.55277 4.39372 6.56266 4.84301Z" fill="#212227"/>
</g>
<defs>
<clipPath id="clip0_836_203">
<rect width="20" height="20" fill="white"/>
</clipPath>
</defs>
</svg>
