<svg width="20" height="20" viewBox="0 0 20 20" fill="none" xmlns="http://www.w3.org/2000/svg">
<g clip-path="url(#clip0_836_196)">
<path d="M19.8461 3.89367C19.1138 4.2149 18.3335 4.42782 17.52 4.5312C18.3569 4.03151 18.9957 3.24628 19.296 2.29982C18.5157 2.76505 17.6541 3.09367 16.736 3.27705C15.995 2.48813 14.939 1.99951 13.787 1.99951C11.552 1.99951 9.75258 3.81367 9.75258 6.03766C9.75258 6.35767 9.77965 6.66536 9.84612 6.95828C6.48981 6.79459 3.51996 5.18597 1.52489 2.73551C1.17658 3.33982 0.97227 4.03151 0.97227 4.77613C0.97227 6.17428 1.69227 7.41366 2.7655 8.1312C2.11689 8.1189 1.48058 7.93059 0.941501 7.63397C0.941501 7.64628 0.941501 7.66228 0.941501 7.67828C0.941501 9.64013 2.34089 11.2697 4.17596 11.645C3.84735 11.7349 3.48919 11.778 3.1175 11.778C2.85904 11.778 2.59812 11.7632 2.35319 11.709C2.87627 13.3078 4.36058 14.4832 6.1255 14.5214C4.75196 15.5958 3.00796 16.2432 1.11996 16.2432C0.788886 16.2432 0.471347 16.2284 0.153809 16.1878C1.94212 17.341 4.0615 17.9995 6.34704 17.9995C13.776 17.9995 17.8375 11.8457 17.8375 6.51151C17.8375 6.33305 17.8313 6.16074 17.8227 5.98967C18.624 5.42105 19.2972 4.7109 19.8461 3.89367Z" fill="#212227"/>
</g>
<defs>
<clipPath id="clip0_836_196">
<rect width="19.6923" height="19.6923" fill="white" transform="translate(0.153809 0.153809)"/>
</clipPath>
</defs>
</svg>
