<svg width="94" height="94" viewBox="0 0 94 94" fill="none" xmlns="http://www.w3.org/2000/svg">
<path d="M47 7.83325C43.1268 7.83325 39.3405 8.98179 36.1201 11.1336C32.8996 13.2855 30.3896 16.344 28.9074 19.9224C27.4251 23.5008 27.0373 27.4383 27.793 31.2371C28.5486 35.0359 30.4137 38.5253 33.1525 41.2641C35.8913 44.0029 39.3807 45.868 43.1795 46.6236C46.9783 47.3793 50.9158 46.9914 54.4942 45.5092C58.0726 44.027 61.1311 41.517 63.283 38.2965C65.4348 35.076 66.5833 31.2898 66.5833 27.4166C66.5833 22.2228 64.5201 17.2417 60.8475 13.5691C57.1749 9.89649 52.1938 7.83325 47 7.83325ZM47 39.1666C44.6761 39.1666 42.4043 38.4775 40.472 37.1864C38.5398 35.8952 37.0337 34.0601 36.1444 31.9131C35.2551 29.7661 35.0224 27.4036 35.4758 25.1243C35.9291 22.845 37.0482 20.7513 38.6915 19.1081C40.3348 17.4648 42.4284 16.3457 44.7077 15.8924C46.987 15.439 49.3495 15.6717 51.4965 16.561C53.6436 17.4503 55.4787 18.9564 56.7698 20.8886C58.0609 22.8209 58.75 25.0927 58.75 27.4166C58.75 30.5329 57.5121 33.5215 55.3085 35.7251C53.105 37.9286 50.1163 39.1666 47 39.1666ZM82.25 82.2499V78.3333C82.25 71.0619 79.3615 64.0884 74.2198 58.9467C69.0782 53.8051 62.1047 50.9166 54.8333 50.9166H39.1667C31.8953 50.9166 24.9218 53.8051 19.7802 58.9467C14.6385 64.0884 11.75 71.0619 11.75 78.3333V82.2499H19.5833V78.3333C19.5833 73.1394 21.6466 68.1583 25.3192 64.4857C28.9917 60.8132 33.9728 58.7499 39.1667 58.7499H54.8333C60.0272 58.7499 65.0083 60.8132 68.6808 64.4857C72.3534 68.1583 74.4167 73.1394 74.4167 78.3333V82.2499H82.25Z" fill="#4991B8"/>
</svg>
