<svg width="94" height="94" viewBox="0 0 94 94" fill="none" xmlns="http://www.w3.org/2000/svg">
<path d="M62.6667 47H70.5001V62.6667H62.6667V47Z" fill="#4991B8"/>
<path d="M78.3333 27.4167V19.5833C78.3333 15.2632 74.82 11.75 70.4999 11.75H19.5833C13.1051 11.75 7.83325 17.0218 7.83325 23.5V70.5C7.83325 79.1206 14.8598 82.25 19.5833 82.25H78.3333C82.6533 82.25 86.1666 78.7367 86.1666 74.4167V35.25C86.1666 30.9299 82.6533 27.4167 78.3333 27.4167ZM19.5833 19.5833H70.4999V27.4167H19.5833C18.5748 27.3716 17.6226 26.9392 16.9249 26.2096C16.2272 25.48 15.8379 24.5095 15.8379 23.5C15.8379 22.4905 16.2272 21.52 16.9249 20.7904C17.6226 20.0608 18.5748 19.6284 19.5833 19.5833ZM78.3333 74.4167H19.6303C17.8208 74.3697 15.6666 73.6529 15.6666 70.5V34.5254C16.8964 34.968 18.2007 35.25 19.5833 35.25H78.3333V74.4167Z" fill="#4991B8"/>
</svg>
